<svg width="32" height="32" viewBox="0 0 32 32" fill="none" xmlns="http://www.w3.org/2000/svg">
<circle cx="16" cy="16" r="16" fill="black"/>
<path d="M22.2071 11.2071C22.5976 10.8166 22.5976 10.1834 22.2071 9.79289C21.8166 9.40237 21.1834 9.40237 20.7929 9.79289L16 14.5858L11.2071 9.79289C10.8166 9.40237 10.1834 9.40237 9.79289 9.79289C9.40237 10.1834 9.40237 10.8166 9.79289 11.2071L14.5858 16L9.79289 20.7929C9.40237 21.1834 9.40237 21.8166 9.79289 22.2071C10.1834 22.5976 10.8166 22.5976 11.2071 22.2071L16 17.4142L20.7929 22.2071C21.1834 22.5976 21.8166 22.5976 22.2071 22.2071C22.5976 21.8166 22.5976 21.1834 22.2071 20.7929L17.4142 16L22.2071 11.2071Z" fill="white"/>
</svg>
