<svg width="32" height="32" viewBox="0 0 32 32" fill="none" xmlns="http://www.w3.org/2000/svg">
<circle cx="16" cy="16" r="16" fill="black"/>
<path fill-rule="evenodd" clip-rule="evenodd" d="M7.21967 7.21967C7.51256 6.92678 7.98744 6.92678 8.28033 7.21967L14.5 13.4393V9.75C14.5 9.33579 14.8358 9 15.25 9C15.6642 9 16 9.33579 16 9.75V15.5C16 15.7761 15.7761 16 15.5 16H9.75C9.33579 16 9 15.6642 9 15.25C9 14.8358 9.33579 14.5 9.75 14.5H13.4393L7.21967 8.28033C6.92678 7.98744 6.92678 7.51256 7.21967 7.21967ZM17.5 10.75C17.5 10.3358 17.8358 10 18.25 10H21.75C23.2688 10 24.5 11.2312 24.5 12.75V21.75C24.5 23.2688 23.2688 24.5 21.75 24.5H12.75C11.2312 24.5 10 23.2688 10 21.75V18.25C10 17.8358 10.3358 17.5 10.75 17.5C11.1642 17.5 11.5 17.8358 11.5 18.25V21.75C11.5 22.4404 12.0596 23 12.75 23H21.75C22.4404 23 23 22.4404 23 21.75V12.75C23 12.0596 22.4404 11.5 21.75 11.5H18.25C17.8358 11.5 17.5 11.1642 17.5 10.75Z" fill="white"/>
</svg>
