<svg width="12" height="17" viewBox="0 0 12 17" fill="none" xmlns="http://www.w3.org/2000/svg">
<path d="M1.66992 0C1.11764 0 0.669922 0.447715 0.669922 1V15.33C0.669922 15.8823 1.11764 16.33 1.66992 16.33H3.66992C4.22221 16.33 4.66992 15.8823 4.66992 15.33V1C4.66992 0.447715 4.22221 0 3.66992 0H1.66992Z" fill="white"/>
<path d="M8.66992 0C8.11764 0 7.66992 0.447715 7.66992 1V15.33C7.66992 15.8823 8.11764 16.33 8.66992 16.33H10.6699C11.2222 16.33 11.6699 15.8823 11.6699 15.33V1C11.6699 0.447715 11.2222 0 10.6699 0H8.66992Z" fill="white"/>
</svg>
